<svg xmlns="http://www.w3.org/2000/svg" viewBox="0 0 18 18"><g stroke-linecap="round" stroke-width="1.5" fill="none" stroke="currentColor" stroke-linejoin="round" class="nc-icon-wrapper"><path d="M1.75 4.75C1.75 3.64543 2.64543 2.75 3.75 2.75H14.25C15.3546 2.75 16.25 3.64543 16.25 4.75V7.75H1.75V4.75Z" fill="currentColor" fill-opacity="0.3" data-color="color-2" data-stroke="none" stroke="none"></path> <path d="M4.25 6C4.66421 6 5 5.66421 5 5.25C5 4.83579 4.66421 4.5 4.25 4.5C3.83579 4.5 3.5 4.83579 3.5 5.25C3.5 5.66421 3.83579 6 4.25 6Z" fill="currentColor" data-stroke="none" stroke="none"></path> <path d="M6.75 6C7.16421 6 7.5 5.66421 7.5 5.25C7.5 4.83579 7.16421 4.5 6.75 4.5C6.33579 4.5 6 4.83579 6 5.25C6 5.66421 6.33579 6 6.75 6Z" fill="currentColor" data-stroke="none" stroke="none"></path> <path d="M1.75 7.75H16.25"></path> <path d="M16.25 9.836V4.75C16.25 3.646 15.355 2.75 14.25 2.75H3.75C2.645 2.75 1.75 3.646 1.75 4.75V13.25C1.75 14.354 2.645 15.25 3.75 15.25H7.464"></path> <path d="M15 16.5L17.25 14.25L15 12"></path> <path d="M12 16.5L9.75 14.25L12 12"></path></g></svg>