<svg xmlns="http://www.w3.org/2000/svg" viewBox="0 0 18 18"><g stroke-linecap="round" stroke-width="1.5" fill="none" stroke="currentColor" stroke-linejoin="round" class="nc-icon-wrapper"><path d="M4.25 6.75H13.75C14.855 6.75 15.75 7.645 15.75 8.75V13.25C15.75 14.355 14.855 15.25 13.75 15.25H4.25C3.145 15.25 2.25 14.355 2.25 13.25V8.75C2.25 7.645 3.145 6.75 4.25 6.75Z" fill="currentColor" fill-opacity="0.3" data-color="color-2" data-stroke="none" stroke="none"></path> <path d="M2.25 8.75V4.75C2.25 3.645 3.145 2.75 4.25 2.75H6.201C6.808 2.75 7.381 3.025 7.761 3.498L8.364 4.25H13.75C14.855 4.25 15.75 5.145 15.75 6.25V9.094"></path> <path d="M4.25 6.75H13.75C14.855 6.75 15.75 7.645 15.75 8.75V13.25C15.75 14.355 14.855 15.25 13.75 15.25H4.25C3.145 15.25 2.25 14.355 2.25 13.25V8.75C2.25 7.645 3.145 6.75 4.25 6.75Z"></path></g></svg>