<svg xmlns="http://www.w3.org/2000/svg" viewBox="0 0 64 64"><g fill="currentColor" class="nc-icon-wrapper"><path d="M59,9H49V2c0-0.552-0.448-1-1-1H16c-0.552,0-1,0.448-1,1v7H5c-2.209,0-4,1.791-4,4v46c0,2.209,1.791,4,4,4 h26V22c0-0.552,0.448-1,1-1s1,0.448,1,1v41h26c2.209,0,4-1.791,4-4V13C63,10.791,61.209,9,59,9z M29.186,16.579L18.53,23.24 C17.864,23.656,17,23.177,17,22.392V4.204l12.315,10.775C29.819,15.421,29.755,16.224,29.186,16.579z M34.685,14.979L47,4.204 v18.188c0,0.785-0.864,1.264-1.53,0.848l-10.656-6.66C34.245,16.224,34.181,15.421,34.685,14.979z M54,39H44c-0.552,0-1-0.448-1-1 s0.448-1,1-1h10c0.552,0,1,0.448,1,1S54.552,39,54,39z"></path></g></svg>
