<svg xmlns="http://www.w3.org/2000/svg" viewBox="0 0 64 64"><g fill="currentColor" class="nc-icon-wrapper"><path d="M56.764,50.265l-4.614-1.7L34.882,54.948,52.95,61.632a6,6,0,1,0,3.814-11.367ZM55,60a4,4,0,0,1,0-8,3.953,3.953,0,0,1,1.458.285l.047.017v0A4,4,0,0,1,55,60Z"></path><path data-color="color-2" d="M41.9,13.7c-3.674-2.691-6.328-4.635-3.948-10.309a1,1,0,0,0-1-1.384C22.542,3.091,15,14.4,15,25a17,17,0,0,0,34,0C49,18.894,45.229,16.132,41.9,13.7ZM32,36a8.009,8.009,0,0,1-8-8,7.756,7.756,0,0,1,2.3-5.392c1.173-1.408,2.185-2.623,1.716-5.443a1,1,0,0,1,1.128-1.155A12.591,12.591,0,0,1,40,28,8.009,8.009,0,0,1,32,36Z"></path><path d="M55,33a5.9,5.9,0,0,0-2.283.452l-4.709,1.741a18.952,18.952,0,0,1-32.016,0l-4.709-1.741A5.9,5.9,0,0,0,9,33,5.987,5.987,0,0,0,7.06,44.656l7.673,2.838-7.5,2.771A6,6,0,1,0,11.05,61.632L56.94,44.656A5.987,5.987,0,0,0,55,33ZM9,60a4,4,0,0,1-1.506-7.7v0l.047-.017A3.953,3.953,0,0,1,9,52a4,4,0,0,1,0,8Z"></path></g></svg>
