<svg xmlns="http://www.w3.org/2000/svg" viewBox="0 0 64 64"><g fill="currentColor" class="nc-icon-wrapper"><path data-color="color-2" d="M18,10H8V7A1,1,0,0,1,9,6h8a1,1,0,0,1,1,1Z"></path><path data-color="color-2" d="M25,36a1,1,0,0,1-1-1A10.011,10.011,0,0,1,34,25a1,1,0,0,1,0,2,8.009,8.009,0,0,0-8,8A1,1,0,0,1,25,36Z"></path><path d="M56,12H47.535l-5.7-8.555A1,1,0,0,0,41,3H27a1,1,0,0,0-.832.445L20.465,12H8a6.006,6.006,0,0,0-6,6V52a6.006,6.006,0,0,0,6,6H56a6.006,6.006,0,0,0,6-6V18A6.006,6.006,0,0,0,56,12ZM12.5,25A2.5,2.5,0,1,1,15,22.5,2.5,2.5,0,0,1,12.5,25ZM34,50A15,15,0,1,1,49,35,15,15,0,0,1,34,50Z"></path></g></svg>
