<svg xmlns="http://www.w3.org/2000/svg" viewBox="0 0 48 48"><g fill="currentColor" class="nc-icon-wrapper"><path d="M1,14v30c0,1.105,0.895,2,2,2h42c1.105,0,2-0.895,2-2V14H1z M16.707,33.293c0.391,0.391,0.391,1.023,0,1.414 C16.512,34.902,16.256,35,16,35s-0.512-0.098-0.707-0.293l-4-4c-0.391-0.391-0.391-1.023,0-1.414l4-4 c0.391-0.391,1.023-0.391,1.414,0s0.391,1.023,0,1.414L13.414,30L16.707,33.293z M26.97,22.242l-4,16 C22.856,38.697,22.449,39,22.001,39c-0.08,0-0.162-0.01-0.243-0.03c-0.536-0.134-0.862-0.677-0.728-1.212l4-16 c0.133-0.537,0.674-0.865,1.212-0.728C26.778,21.164,27.104,21.707,26.97,22.242z M36.707,30.707l-4,4 C32.512,34.902,32.256,35,32,35s-0.512-0.098-0.707-0.293c-0.391-0.391-0.391-1.023,0-1.414L34.586,30l-3.293-3.293 c-0.391-0.391-0.391-1.023,0-1.414s1.023-0.391,1.414,0l4,4C37.098,29.684,37.098,30.316,36.707,30.707z"></path> <path data-color="color-2" d="M45,2H3C1.895,2,1,2.895,1,4v8h46V4C47,2.895,46.105,2,45,2z M6,9C4.895,9,4,8.105,4,7 s0.895-2,2-2s2,0.895,2,2S7.105,9,6,9z M13,9c-1.105,0-2-0.895-2-2s0.895-2,2-2s2,0.895,2,2S14.105,9,13,9z M20,9 c-1.105,0-2-0.895-2-2s0.895-2,2-2s2,0.895,2,2S21.105,9,20,9z"></path></g></svg>
