<?xml version="1.0" encoding="UTF-8"?>
<svg xmlns="http://www.w3.org/2000/svg" viewBox="0 0 642.957 249.464">
  <g>
    <path d="M291.578,229.388c1.054.073,1.796-3.26,3.105-13.948.73-5.956,3.164-23.41,5.409-38.786,2.245-15.376,5.276-36.291,6.734-46.477,2.593-18.114,6.372-41.465,7.886-48.732.677-3.249.618-3.798-.546-5.05-1.334-1.435-4.192-1.866-4.872-.734-.208.346-2.796,19.304-5.752,42.129-6.432,49.665-9.839,70.794-12.635,78.372-4.292,11.631-6.383,26.892-4.14,30.219.66.978,1.891,2.047,2.736,2.375h0c.845.327,1.779.613,2.075.633Z"/>
    <path d="M13.37,141.279c-4.488-2.938-6.199-5.142-7.63-9.836-2.151-7.05-.332-17.864,4.777-28.412,9.722-20.071,32.506-45.568,55.957-62.622C94.436,20.075,123.059,7.337,147.154,4.505c26.014-3.058,40.241,8.242,40.556,32.213.151,11.498-4.544,27.559-11.711,40.06-16.606,28.964-46.702,56.651-94.929,87.33-6.472,4.117-7.408,4.532-7.108,3.152.19-.874,1.375-6.712,2.632-12.973,1.257-6.261,2.936-12.701,3.731-14.31,1.106-2.24,1.265-3.206.678-4.118-.842-1.31,2.748-21.739,8.941-50.866,1.829-8.603,3.318-16.227,3.308-16.942-.023-1.718-3.975-3.762-5.221-2.7-.49.417-1.032,2.563-1.207,4.768-.673,8.525-14.228,77.408-17.167,87.242-1.612,5.392-3.261,11.163-3.665,12.824l-.734,3.02-3.795-.424c-4.294-.479-5.269.453-4.006,3.83.612,1.637.989,1.801,3.614,1.568,1.612-.143,2.935.036,2.94.397s-.546,4.392-1.224,8.957c-.678,4.565-1.391,10.084-1.583,12.265-.325,3.681-.217,4.066,1.507,5.386,1.021.782,2.555,1.412,3.409,1.401,1.358-.018,1.594-.478,1.889-3.687.505-5.498,3.134-21.247,3.705-22.198.63-1.05,8.792,1.003,25.894,6.513,29.534,9.515,61.281,22.16,133.235,53.066h0c11.768,5.054,21.789,9.188,22.269,9.184,1.224-.008,1.048-2.879-.289-4.737-1.832-2.544-18.164-9.934-32.562-14.734-3.725-1.242-15.587-5.797-26.358-10.122-40.978-16.454-90.923-34.849-114.206-42.062-9.016-2.793-9.105-3.343-1.252-7.753,22.867-12.841,51.575-32.779,67.409-46.817,44.293-39.267,60.997-89.616,37.244-112.255-4.511-4.3-12.77-8.589-19.578-10.169-6.3-1.461-23.299-.876-31.9,1.099-32.411,7.441-68.542,28.753-95.765,56.488C18.009,76.583,6.706,93.205,1.631,108.728c-2.233,6.829-2.162,18.658.14,23.471,1.952,4.08,6.298,8.335,10.738,10.512,4.614,2.262,5.148,1.374.861-1.431Z"/>
    <path d="M227.684,122.436c3.676,1.199,7.907,1.364,7.893.308-.005-.384-.715-.69-1.578-.681-5.807.062-11.675-4.206-13.219-9.614-.53-1.858-.783-5.481-.63-9.035.48-11.132,7.035-23.3,20.079-37.276,13.243-14.189,27.838-25.074,46.492-34.675,52.151-26.839,100.987-24.908,109.91,4.347,1.985,6.507,1.418,16.613-1.341,23.897-4.559,12.037-15.318,25.967-30.844,39.936-22.348,20.107-44.336,35.262-53.161,36.644-1.765.276-3.334.896-3.487,1.377h0c-.402,1.26,4.326,1.065,8.932-.369,18.7-5.822,60.304-38.045,74.415-57.637,8.662-12.026,12.356-21.085,12.79-31.367.426-10.1-2.183-17.007-9.125-24.152-6.99-7.195-16.006-11.886-27.831-14.478-4.454-.977-8.231-1.182-18.499-1.006-11.229.193-14.066.482-21.881,2.233-10.396,2.328-23.192,6.546-33.664,11.096-48.377,21.02-84.523,63.486-75.867,89.131,1.659,4.915,6.367,9.935,10.618,11.321Z"/>
    <path d="M384.285,186.014c.658-.219,4.14-4.589,7.737-9.711s7.599-10.564,8.894-12.093l2.354-2.779.836,3.147c1.005,3.78,3.653,6.543,7.257,7.572,2.325.663,3.027.558,5.641-.849,1.642-.884,5.384-3.644,8.315-6.134,2.931-2.49,5.446-4.529,5.589-4.531s-.562,4.481-1.567,9.961c-1.005,5.48-2.004,12.203-2.22,14.939-.355,4.484-.246,5.119,1.109,6.438.826.805,1.802,1.46,2.167,1.455.86-.011,1.838-3.807,2.75-10.669.473-3.561,1.005-5.368,1.52-5.158,3.912,1.596,5.909,1.831,8.739,1.029,3.601-1.021,8.387-5.338,11.57-10.437,2.099-3.363,2.667-3.788,6.872-5.148,6.378-2.062,6.554-2.03,5.749,1.041-1.83,6.985,3.655,13.458,11.318,13.357,3.851-.051,10.256-3.593,14.883-8.23,3.907-3.916,3.931-3.928,6.681-3.226,1.59.406,2.935,1.235,3.175,1.956.228.688,1.386,2.157,2.572,3.264,1.875,1.75,2.682,2.006,6.182,1.96,3.474-.046,4.551-.412,7.864-2.675,3.955-2.702,4.832-3.798,11.173-13.968,2.05-3.288,3.735-5.763,3.747-5.501.01.262-.407,2.645-.928,5.295-2.71,13.778-6.197,35.384-6.161,38.167.03,2.28.387,3.368,1.272,3.874h0c1.914,1.096,3.171.536,3.727-1.658.28-1.106,1.247-7.554,2.148-14.328,1.945-14.621,3.503-23.417,6.598-37.241,2.277-10.175,2.305-10.243,4.427-10.696,1.174-.251,23.46-.737,49.525-1.079,44.182-.581,47.374-.703,47.147-1.803-.134-.649-1.207-1.726-2.385-2.393-2.03-1.15-4.562-1.144-48.379.115-25.43.731-46.358,1.21-46.507,1.066-.148-.144.944-4.022,2.426-8.617,1.483-4.595,2.522-9.027,2.31-9.849-.298-1.156-3.366-2.99-4.967-2.969-.442.006-1.773,4.614-3.234,11.204-.896,4.04-1.926,8.154-2.289,9.142l-.659,1.796-27.431,1.18c-15.087.649-29.665,1.015-32.395.812-5.499-.408-7.033.431-4.148,2.268,2.727,1.736,10.199,1.849,37.016.561,13.674-.657,25.065-.995,25.315-.752.25.243-.708,2.879-2.127,5.858-7.346,15.413-14.833,25.046-21.475,27.631-2.122.826-3.961,1.401-4.088,1.277s-.654-1.461-1.171-2.974c-.721-2.107-1.597-3.067-3.746-4.108-1.543-.747-2.927-1.425-3.075-1.507-.148-.082.999-2.313,2.551-4.959,1.551-2.646,2.814-5.329,2.806-5.964-.017-1.328-2.065-2.571-4.188-2.544-1.843.024-6.399,7.069-7.462,11.537-.601,2.527-1.493,3.767-4.545,6.32-4.586,3.837-10.322,6.836-14.156,7.402-2.254.333-2.831.198-2.843-.664-.008-.595-.21-1.571-.448-2.169-.29-.727.108-1.305,1.198-1.743,2.441-.979,4.455-3.525,6.405-8.096,1.994-4.673,1.752-6.307-1.151-7.76-4.051-2.028-6.473-.806-10.38,5.238-.744,1.15-2.471,1.949-6.287,2.904l-5.261,1.318.249-3.571c.216-3.089-.006-3.867-1.64-5.758-4.877-5.643-11.631-2.701-18.597,8.1-1.706,2.645-2.582,3.568-2.346,2.472,2.313-10.739,6.343-42.414,8.343-65.57,1.507-17.451,1.526-18.463.366-19.711-1.482-1.595-4.191-1.69-4.753-.166-.225.61-.389,2.607-.365,4.437.132,10.068-3.361,47.705-5.997,64.614l-1.084,6.956-5.527,4.082c-7.018,5.183-15.461,10.197-16.11,9.565-.274-.267-.718-3.015-.986-6.107-.384-4.427-.774-5.825-1.837-6.581-2.345-1.668-4.612-.784-6.82,2.659-3.127,4.876-13.032,17.676-15.786,20.4l-2.464,2.436-.018-2.404c-.054-6.94,3.689-29.128,10.065-59.652,2.321-11.11,4.208-21.039,4.195-22.063-.03-2.249-1.199-3.522-3.213-3.495-1.338.018-1.714.984-3.615,9.29-1.167,5.099-3.865,17.769-5.996,28.156-7.434,36.241-8.968,50.121-5.907,53.443,1.718,1.864,4.332,2.903,5.952,2.365ZM474.285,164.599c.546-2.448,3.718-7.686,4.307-7.112.221.216-.107,1.78-.729,3.476-.622,1.696-1.787,3.68-2.589,4.409q-1.452,1.321-.989-.773ZM445,170.973h0c-1.646,1.862-6.239,4.893-5.468,3.608.263-.437,1.939-1.811,3.725-3.053,2.715-1.887,3.001-1.978,1.743-.555ZM437.848,169.071c3.78-6.519,9.207-12.923,12.438-14.677,2.577-1.398,2.633-1.365,2.672,1.617.038,2.878-2.4,8.494-4.062,9.36-.572.297-3.633,1.841-6.802,3.43l-5.763,2.889,1.518-2.619Z"/>
    <path d="M410.972,145.376c.744-1.257,1.348-2.671,1.344-3.143-.012-1.171-3.466-1.906-4.827-1.027-1.717,1.109-2.514,4.136-1.425,5.414,1.473,1.728,3.446,1.228,4.909-1.244Z"/>
    <path d="M323.115,185.221h0c1.93,1.192,3.127.415,4.449-2.887,1.597-3.99,9.77-17.678,10.562-17.689.3-.004.551.479.559,1.074.046,3.491,4.858,9.038,8.689,10.016,3.965,1.012,7.129-.349,11.385-4.897l3.584-3.83-.071,4.99c-.06,4.228.138,5.139,1.296,5.966,3.163,2.26,3.365,1.857,5.445-10.848.795-4.854,1.668-9.355,1.941-10.001.354-.838-.044-1.52-1.388-2.375-2.493-1.587-3.654-.769-5.256,3.705-.931,2.6-2.227,4.349-4.886,6.593-4.024,3.396-10.256,6.662-12.089,6.334-1.083-.194-1.978-2.274-4.39-10.208-.616-2.026-3.904-4.538-5.241-4.004-.534.213-2.787,3.714-5.006,7.78-2.219,4.066-4.154,7.277-4.299,7.135-.85-.828,3.018-34.04,7.484-64.254,1.761-11.917,3.102-22.44,2.979-23.386-.262-2.019-3.633-4.201-4.737-3.067-.385.395-1.004,3.851-1.376,7.681-.372,3.83-3.173,26.144-6.222,49.588-5.552,42.675-5.733,45.15-3.413,46.583Z"/>
    <path d="M367.92,148.84c1.352.49,4.024-.158,4.014-.973-.002-.131.454-1.374,1.012-2.762.983-2.443.961-2.557-.711-3.622-2.32-1.477-4.399-.677-5.727,2.205-1.256,2.725-.812,4.345,1.412,5.151Z"/>
    <path d="M120.856,178.005h0c3.235,1.273,7.83.373,13.915-2.727,4.529-2.307,5.647-2.642,6.114-1.832.601,1.041,4.14,3.037,5.358,3.021.392-.005,2.953-3.088,5.692-6.85l4.98-6.84.454,2.581c.981,5.573,5.519,7.353,10.875,4.266,1.775-1.023,3.281-1.86,3.348-1.861s.013,1.042-.119,2.317c-.324,3.13,2.544,6.491,6.061,7.103,3.344.582,8.91-2.348,12.568-6.616l2.626-3.064,7.602.647c11.607.988,49.112-1.14,50.774-2.882,1.209-1.266-2.224-3.404-5.4-3.362-1.534.02-7.534.583-13.334,1.252-6.693.771-15.388,1.204-23.8,1.185-12.81-.03-13.247-.077-13.042-1.428.117-.769.361-2.384.543-3.59.713-4.733-3.076-7.405-10.323-7.281-8.043.137-13.322,3.711-11.679,7.907.526,1.344.271,1.979-1.465,3.644-1.84,1.765-8.506,4.966-10.393,4.99-.369.005-.701-2.282-.738-5.083-.111-8.452-2.676-9.046-9.016-2.088-2.313,2.538-4.21,4.25-4.216,3.803s.966-2.863,2.159-5.369c2.118-4.45,2.138-4.58.804-5.529-2.67-1.899-4-.856-7.223,5.663-2.73,5.522-3.514,6.501-7.206,9.002-8.36,5.662-16.802,7.402-17.744,3.657-.851-3.38-.113-4.882,2.414-4.915,4.992-.066,12.594-9.117,10.637-12.663-2.025-3.667-7.662-3.344-12.018.688-3.227,2.988-6.693,9.939-6.649,13.336.056,4.357,2.113,6.823,7.441,8.919ZM179.871,157.904c1.67-1.895,5.499-3.039,9.395-2.808,2.821.167,3.166.377,3.382,2.055.132,1.028-.244,2.838-.837,4.022-.731,1.46-1.577,2.145-2.63,2.127-2.751-.047-8.28-1.717-9.446-2.853-1.04-1.012-1.028-1.222.136-2.543ZM177.626,166.324l.736-2.578,4.306,1.382c2.368.76,4.436,1.458,4.595,1.551.534.313-2.318,3.17-4.758,4.767h0c-1.331.871-3.124,1.817-3.983,2.102-1.428.474-1.566.296-1.597-2.063-.019-1.42.297-3.742.702-5.16ZM123.467,159.403c3.014-3.442,5.107-4.585,5.13-2.802.018,1.404-2.829,5.184-5.123,6.8-4.338,3.057-4.342.952-.008-3.998Z"/>
  </g>
</svg>
